<?xml version="1.0" encoding="us-ascii" standalone="no"?><svg xmlns="http://www.w3.org/2000/svg" xmlns:xlink="http://www.w3.org/1999/xlink" contentStyleType="text/css" height="541px" preserveAspectRatio="none" style="width:369px;height:541px;background:#FFFFFF;" version="1.1" viewBox="0 0 369 541" width="369px" zoomAndPan="magnify"><defs/><g><!--cluster prototype_pattern--><g id="cluster_prototype_pattern"><path d="M8.5,6 L159.5,6 A3.75,3.75 0 0 1 162,8.5 L169,28.2969 L359.5,28.2969 A2.5,2.5 0 0 1 362,30.7969 L362,531.5 A2.5,2.5 0 0 1 359.5,534 L8.5,534 A2.5,2.5 0 0 1 6,531.5 L6,8.5 A2.5,2.5 0 0 1 8.5,6 " fill="none" style="stroke:#000000;stroke-width:1.5;"/><line style="stroke:#000000;stroke-width:1.5;" x1="6" x2="169" y1="28.2969" y2="28.2969"/><text fill="#000000" font-family="sans-serif" font-size="14" font-weight="bold" lengthAdjust="spacing" textLength="150" x="10" y="20.9951">prototype_pattern</text></g><!--cluster prototype_pattern.dart--><g id="cluster_prototype_pattern.dart"><path d="M32.5,49 L223.5,49 A3.75,3.75 0 0 1 226,51.5 L233,71.2969 L335.5,71.2969 A2.5,2.5 0 0 1 338,73.7969 L338,507.5 A2.5,2.5 0 0 1 335.5,510 L32.5,510 A2.5,2.5 0 0 1 30,507.5 L30,51.5 A2.5,2.5 0 0 1 32.5,49 " fill="none" style="stroke:#000000;stroke-width:1.5;"/><line style="stroke:#000000;stroke-width:1.5;" x1="30" x2="233" y1="71.2969" y2="71.2969"/><text fill="#000000" font-family="sans-serif" font-size="14" font-weight="bold" lengthAdjust="spacing" textLength="190" x="34" y="63.9951">prototype_pattern.dart</text></g><!--class Radio--><g id="elem_Radio"><rect codeLine="3" fill="#F1F1F1" height="113.1875" id="Radio" rx="2.5" ry="2.5" style="stroke:#181818;stroke-width:0.5;" width="119" x="124.5" y="257"/><ellipse cx="160.2" cy="273" fill="#A9DCDF" rx="11" ry="11" style="stroke:#181818;stroke-width:1.0;"/><path d="M162.2781,274.8125 L162.6688,275.7969 L162.2781,275.7969 C161.825,275.7969 161.7156,275.8125 161.5594,275.9219 C161.3094,276.0781 161.1531,276.3594 161.1531,276.6563 C161.1531,276.9219 161.2938,277.1719 161.5125,277.3281 C161.6531,277.4531 161.8563,277.5 162.2781,277.5 L164.6375,277.5 C164.9969,277.5 165.2156,277.4688 165.3563,277.375 C165.6063,277.2344 165.7625,276.9375 165.7625,276.6563 C165.7625,276.375 165.6219,276.125 165.4031,275.9688 C165.2313,275.8281 165.075,275.7969 164.6063,275.7969 L161.2156,267.5938 L157.5438,267.5938 C157.0906,267.5938 156.9656,267.6094 156.8094,267.7031 C156.5594,267.875 156.4031,268.1563 156.4031,268.4375 C156.4031,268.7188 156.5438,268.9688 156.7625,269.1406 C156.9344,269.25 157.1063,269.2813 157.5438,269.2813 L158.6219,269.2813 L155.9813,275.7969 C155.5594,275.7969 155.4031,275.8125 155.2469,275.9219 C154.9969,276.0781 154.8406,276.3594 154.8406,276.6563 C154.8406,277.2188 155.2156,277.5 155.9656,277.5 L158.2313,277.5 C158.5906,277.5 158.8094,277.4688 158.9344,277.375 C159.2,277.2344 159.3406,276.9375 159.3406,276.6563 C159.3406,276.375 159.2156,276.125 158.9969,275.9531 C158.825,275.8281 158.6844,275.7969 158.2313,275.7969 L157.8406,275.7969 L158.2313,274.8125 L162.2781,274.8125 Z M161.575,273.1094 L158.9031,273.1094 L160.2469,269.8438 L161.575,273.1094 Z " fill="#000000"/><text fill="#000000" font-family="sans-serif" font-size="14" font-style="italic" lengthAdjust="spacing" textLength="41" x="178.8" y="277.8467">Radio</text><line style="stroke:#181818;stroke-width:0.5;" x1="125.5" x2="242.5" y1="289" y2="289"/><ellipse cx="135.5" cy="302.6484" fill="none" rx="3" ry="3" style="stroke:#038048;stroke-width:1.0;"/><text fill="#000000" font-family="sans-serif" font-size="14" lengthAdjust="spacing" textLength="90" x="144.5" y="305.9951">String brand</text><ellipse cx="135.5" cy="318.9453" fill="none" rx="3" ry="3" style="stroke:#038048;stroke-width:1.0;"/><text fill="#000000" font-family="sans-serif" font-size="14" lengthAdjust="spacing" textLength="93" x="144.5" y="322.292">String model</text><ellipse cx="135.5" cy="335.2422" fill="none" rx="3" ry="3" style="stroke:#038048;stroke-width:1.0;"/><text fill="#000000" font-family="sans-serif" font-size="14" lengthAdjust="spacing" textLength="61" x="144.5" y="338.5889">int price</text><line style="stroke:#181818;stroke-width:0.5;" x1="125.5" x2="242.5" y1="345.8906" y2="345.8906"/><ellipse cx="135.5" cy="359.5391" fill="#84BE84" rx="3" ry="3" style="stroke:#038048;stroke-width:1.0;"/><text fill="#000000" font-family="sans-serif" font-size="14" lengthAdjust="spacing" textLength="93" x="144.5" y="362.8857">Radio clone()</text></g><!--class BasicRadio--><g id="elem_BasicRadio"><rect codeLine="10" fill="#F1F1F1" height="64.2969" id="BasicRadio" rx="2.5" ry="2.5" style="stroke:#181818;stroke-width:0.5;" width="119" x="46.5" y="430"/><ellipse cx="66" cy="446" fill="#ADD1B2" rx="11" ry="11" style="stroke:#181818;stroke-width:1.0;"/><path d="M68.3438,441.6719 C67.4063,441.2344 66.8125,441.0938 65.9375,441.0938 C63.3125,441.0938 61.3125,443.1719 61.3125,445.8906 L61.3125,447.0156 C61.3125,449.5938 63.4219,451.4844 66.3125,451.4844 C67.5313,451.4844 68.6875,451.1875 69.4375,450.6406 C70.0156,450.2344 70.3438,449.7813 70.3438,449.3906 C70.3438,448.9375 69.9531,448.5469 69.4844,448.5469 C69.2656,448.5469 69.0625,448.625 68.875,448.8125 C68.4219,449.2969 68.4219,449.2969 68.2344,449.3906 C67.8125,449.6563 67.125,449.7813 66.3594,449.7813 C64.3125,449.7813 63.0156,448.6875 63.0156,446.9844 L63.0156,445.8906 C63.0156,444.1094 64.2656,442.7969 66,442.7969 C66.5781,442.7969 67.1875,442.9531 67.6563,443.2031 C68.1406,443.4844 68.3125,443.7031 68.4063,444.1094 C68.4688,444.5156 68.5,444.6406 68.6406,444.7656 C68.7813,444.9063 69.0156,445.0156 69.2344,445.0156 C69.5,445.0156 69.7656,444.875 69.9375,444.6563 C70.0469,444.5 70.0781,444.3125 70.0781,443.8906 L70.0781,442.4688 C70.0781,442.0313 70.0625,441.9063 69.9688,441.75 C69.8125,441.4844 69.5313,441.3438 69.2344,441.3438 C68.9375,441.3438 68.7344,441.4375 68.5156,441.75 L68.3438,441.6719 Z " fill="#000000"/><text fill="#000000" font-family="sans-serif" font-size="14" lengthAdjust="spacing" textLength="77" x="81" y="450.8467">BasicRadio</text><line style="stroke:#181818;stroke-width:0.5;" x1="47.5" x2="164.5" y1="462" y2="462"/><line style="stroke:#181818;stroke-width:0.5;" x1="47.5" x2="164.5" y1="470" y2="470"/><ellipse cx="57.5" cy="483.6484" fill="#84BE84" rx="3" ry="3" style="stroke:#038048;stroke-width:1.0;"/><text fill="#000000" font-family="sans-serif" font-size="14" lengthAdjust="spacing" textLength="93" x="66.5" y="486.9951">Radio clone()</text></g><!--class DeluxeRadio--><g id="elem_DeluxeRadio"><rect codeLine="16" fill="#F1F1F1" height="64.2969" id="DeluxeRadio" rx="2.5" ry="2.5" style="stroke:#181818;stroke-width:0.5;" width="121" x="200.5" y="430"/><ellipse cx="215.5" cy="446" fill="#ADD1B2" rx="11" ry="11" style="stroke:#181818;stroke-width:1.0;"/><path d="M217.8438,441.6719 C216.9063,441.2344 216.3125,441.0938 215.4375,441.0938 C212.8125,441.0938 210.8125,443.1719 210.8125,445.8906 L210.8125,447.0156 C210.8125,449.5938 212.9219,451.4844 215.8125,451.4844 C217.0313,451.4844 218.1875,451.1875 218.9375,450.6406 C219.5156,450.2344 219.8438,449.7813 219.8438,449.3906 C219.8438,448.9375 219.4531,448.5469 218.9844,448.5469 C218.7656,448.5469 218.5625,448.625 218.375,448.8125 C217.9219,449.2969 217.9219,449.2969 217.7344,449.3906 C217.3125,449.6563 216.625,449.7813 215.8594,449.7813 C213.8125,449.7813 212.5156,448.6875 212.5156,446.9844 L212.5156,445.8906 C212.5156,444.1094 213.7656,442.7969 215.5,442.7969 C216.0781,442.7969 216.6875,442.9531 217.1563,443.2031 C217.6406,443.4844 217.8125,443.7031 217.9063,444.1094 C217.9688,444.5156 218,444.6406 218.1406,444.7656 C218.2813,444.9063 218.5156,445.0156 218.7344,445.0156 C219,445.0156 219.2656,444.875 219.4375,444.6563 C219.5469,444.5 219.5781,444.3125 219.5781,443.8906 L219.5781,442.4688 C219.5781,442.0313 219.5625,441.9063 219.4688,441.75 C219.3125,441.4844 219.0313,441.3438 218.7344,441.3438 C218.4375,441.3438 218.2344,441.4375 218.0156,441.75 L217.8438,441.6719 Z " fill="#000000"/><text fill="#000000" font-family="sans-serif" font-size="14" lengthAdjust="spacing" textLength="89" x="229.5" y="450.8467">DeluxeRadio</text><line style="stroke:#181818;stroke-width:0.5;" x1="201.5" x2="320.5" y1="462" y2="462"/><line style="stroke:#181818;stroke-width:0.5;" x1="201.5" x2="320.5" y1="470" y2="470"/><ellipse cx="211.5" cy="483.6484" fill="#84BE84" rx="3" ry="3" style="stroke:#038048;stroke-width:1.0;"/><text fill="#000000" font-family="sans-serif" font-size="14" lengthAdjust="spacing" textLength="93" x="220.5" y="486.9951">Radio clone()</text></g><!--class RadioStore--><g id="elem_RadioStore"><rect codeLine="22" fill="#F1F1F1" height="113.1875" id="RadioStore" rx="2.5" ry="2.5" style="stroke:#181818;stroke-width:0.5;" width="231" x="68.5" y="84"/><ellipse cx="139.75" cy="100" fill="#ADD1B2" rx="11" ry="11" style="stroke:#181818;stroke-width:1.0;"/><path d="M142.0938,95.6719 C141.1563,95.2344 140.5625,95.0938 139.6875,95.0938 C137.0625,95.0938 135.0625,97.1719 135.0625,99.8906 L135.0625,101.0156 C135.0625,103.5938 137.1719,105.4844 140.0625,105.4844 C141.2813,105.4844 142.4375,105.1875 143.1875,104.6406 C143.7656,104.2344 144.0938,103.7813 144.0938,103.3906 C144.0938,102.9375 143.7031,102.5469 143.2344,102.5469 C143.0156,102.5469 142.8125,102.625 142.625,102.8125 C142.1719,103.2969 142.1719,103.2969 141.9844,103.3906 C141.5625,103.6563 140.875,103.7813 140.1094,103.7813 C138.0625,103.7813 136.7656,102.6875 136.7656,100.9844 L136.7656,99.8906 C136.7656,98.1094 138.0156,96.7969 139.75,96.7969 C140.3281,96.7969 140.9375,96.9531 141.4063,97.2031 C141.8906,97.4844 142.0625,97.7031 142.1563,98.1094 C142.2188,98.5156 142.25,98.6406 142.3906,98.7656 C142.5313,98.9063 142.7656,99.0156 142.9844,99.0156 C143.25,99.0156 143.5156,98.875 143.6875,98.6563 C143.7969,98.5 143.8281,98.3125 143.8281,97.8906 L143.8281,96.4688 C143.8281,96.0313 143.8125,95.9063 143.7188,95.75 C143.5625,95.4844 143.2813,95.3438 142.9844,95.3438 C142.6875,95.3438 142.4844,95.4375 142.2656,95.75 L142.0938,95.6719 Z " fill="#000000"/><text fill="#000000" font-family="sans-serif" font-size="14" lengthAdjust="spacing" textLength="80" x="160.25" y="104.8467">RadioStore</text><line style="stroke:#181818;stroke-width:0.5;" x1="69.5" x2="298.5" y1="116" y2="116"/><ellipse cx="79.5" cy="129.6484" fill="none" rx="3" ry="3" style="stroke:#038048;stroke-width:1.0;"/><text fill="#000000" font-family="sans-serif" font-size="14" lengthAdjust="spacing" textLength="195" x="88.5" y="132.9951">Radio basicRadioPrototype</text><ellipse cx="79.5" cy="145.9453" fill="none" rx="3" ry="3" style="stroke:#038048;stroke-width:1.0;"/><text fill="#000000" font-family="sans-serif" font-size="14" lengthAdjust="spacing" textLength="205" x="88.5" y="149.292">Radio deluxeRadioPrototype</text><line style="stroke:#181818;stroke-width:0.5;" x1="69.5" x2="298.5" y1="156.5938" y2="156.5938"/><ellipse cx="79.5" cy="170.2422" fill="#84BE84" rx="3" ry="3" style="stroke:#038048;stroke-width:1.0;"/><text fill="#000000" font-family="sans-serif" font-size="14" lengthAdjust="spacing" textLength="178" x="88.5" y="173.5889">Radio createBasicRadio()</text><ellipse cx="79.5" cy="186.5391" fill="#84BE84" rx="3" ry="3" style="stroke:#038048;stroke-width:1.0;"/><text fill="#000000" font-family="sans-serif" font-size="14" lengthAdjust="spacing" textLength="190" x="88.5" y="189.8857">Radio createDeluxeRadio()</text></g><!--reverse link Radio to BasicRadio--><g id="link_Radio_BasicRadio"><path codeLine="14" d="M144.79,388.145 C136.937,402.895 129.095,417.623 122.538,429.938 " fill="none" id="Radio-backto-BasicRadio" style="stroke:#181818;stroke-width:1.0;"/><polygon fill="none" points="138.711,384.667,154.289,370.303,151.069,391.247,138.711,384.667" style="stroke:#181818;stroke-width:1.0;"/></g><!--reverse link Radio to DeluxeRadio--><g id="link_Radio_DeluxeRadio"><path codeLine="20" d="M222.707,388.145 C230.46,402.895 238.201,417.623 244.674,429.938 " fill="none" id="Radio-backto-DeluxeRadio" style="stroke:#181818;stroke-width:1.0;"/><polygon fill="none" points="216.439,391.264,213.33,370.303,228.831,384.75,216.439,391.264" style="stroke:#181818;stroke-width:1.0;"/></g><!--reverse link RadioStore to Radio--><g id="link_RadioStore_Radio"><path codeLine="29" d="M184,210.379 C184,225.865 184,242.107 184,256.967 " fill="none" id="RadioStore-backto-Radio" style="stroke:#181818;stroke-width:1.0;"/><polygon fill="none" points="184,197.019,180,203.019,184,209.019,188,203.019,184,197.019" style="stroke:#181818;stroke-width:1.0;"/></g><!--SRC=[nL9B2i8m4Dtd58ChHVG0mPLu0B47a6aoIA0cOJA2ejxTjdvQhHkpSVdoU7aV9f60npsbY8OAYiWeWK5hfR1CmcW4J8KfmIXoa22dIDk88iHUwy7Jt2ABrXkqBepWh02cXR3pEoWPlUtXVR1KDTXvWSZEK0DQOMqOF8qdwghKxzvBJCxq0mp-p6YokCnckIboIgoeEXpfxotwCN9gjCgYFYXwQr6-nba_XHrfEyylh652eMxTUeiFhfSvSwX7uF3ZMFUPRW00]--></g></svg>